<?xml version="1.0" standalone="no"?>
<!DOCTYPE svg PUBLIC "-//W3C//DTD SVG 20010904//EN"
 "http://www.w3.org/TR/2001/REC-SVG-20010904/DTD/svg10.dtd">
<svg version="1.0" xmlns="http://www.w3.org/2000/svg"
 width="200.000000pt" height="200.000000pt" viewBox="0 0 200.000000 200.000000"
 preserveAspectRatio="xMidYMid meet">
<metadata>
Created by potrace 1.16, written by Peter Selinger 2001-2019
</metadata>
<g transform="translate(0.000000,200.000000) scale(0.100000,-0.100000)"
fill="#000000" stroke="none">
<path d="M906 1744 c-55 -17 -82 -33 -143 -81 -32 -26 -45 -45 -57 -87 -17
-57 -19 -147 -7 -231 8 -56 12 -49 30 57 10 58 32 111 51 123 5 3 24 -2 42
-11 107 -55 240 -58 394 -9 18 5 23 0 37 -37 9 -24 22 -71 28 -105 7 -35 17
-63 22 -63 4 0 8 57 7 128 -1 70 1 135 5 144 15 37 -85 135 -172 168 -64 24
-165 26 -237 4z"/>
<path d="M616 760 c-76 -32 -120 -49 -134 -50 -17 0 -61 -33 -56 -42 5 -7 3
-8 -5 -3 -8 4 -26 -6 -48 -26 -41 -40 -61 -71 -39 -63 8 3 17 0 22 -7 5 -8 2
-11 -8 -7 -35 14 -56 -38 -65 -159 -5 -64 -3 -83 7 -83 9 0 11 14 8 51 -3 28
-2 45 2 39 5 -9 9 -9 11 -1 2 6 4 -18 4 -54 0 -38 -4 -64 -10 -62 -14 5 -35
-18 -35 -37 0 -14 17 -16 119 -16 l118 0 11 43 11 42 -4 -42 -5 -43 34 0 c19
0 37 6 39 13 4 10 6 10 6 0 1 -9 20 -13 61 -13 55 0 60 2 60 22 l0 22 15 -21
c15 -22 20 -22 265 -22 245 0 250 0 265 22 l15 21 0 -22 c0 -20 5 -22 59 -22
48 0 60 3 64 17 4 17 5 17 6 1 1 -14 10 -18 35 -18 24 0 36 5 39 18 4 16 5 16
6 0 1 -16 14 -18 121 -18 111 0 120 1 120 19 0 12 -9 21 -26 25 -21 6 -25 11
-19 29 4 12 10 36 13 52 6 30 6 30 13 -10 6 -36 6 -35 8 20 1 65 -23 175 -41
186 -6 4 -18 5 -26 1 -10 -4 -13 -1 -8 7 5 7 15 10 23 6 14 -5 14 -3 1 17 -21
31 -38 34 -45 8 -4 -16 -8 -18 -14 -8 -12 17 -11 31 0 23 5 -3 13 0 16 5 9 15
-25 52 -42 45 -8 -2 -11 -1 -8 5 5 8 -43 40 -60 40 -9 1 -39 12 -134 52 -51
21 -94 38 -96 36 -1 -2 -43 -85 -93 -185 -51 -100 -104 -203 -120 -230 -15
-26 -36 -67 -46 -90 -11 -24 -22 -43 -25 -43 -6 0 -245 458 -270 517 -7 18
-16 33 -20 33 -3 -1 -46 -18 -95 -40z"/>
</g>
</svg>
